<svg width="24" height="24" viewBox="0 0 24 24" fill="none" xmlns="http://www.w3.org/2000/svg">
<path d="M4.52047 5.93482L1.39366 2.80802L2.80788 1.3938L22.6069 21.1927L21.1927 22.607L17.8827 19.297C16.1814 20.3757 14.1638 21.0004 12.0003 21.0004C6.60812 21.0004 2.12215 17.1206 1.18164 12.0004C1.61832 9.62307 2.81932 7.51315 4.52047 5.93482ZM14.7577 16.172L13.2937 14.708C12.902 14.8954 12.4634 15.0004 12.0003 15.0004C10.3434 15.0004 9.00026 13.6572 9.00026 12.0004C9.00026 11.5372 9.10522 11.0986 9.29263 10.7069L7.82866 9.24302C7.30514 10.0334 7.00026 10.9813 7.00026 12.0004C7.00026 14.7618 9.23884 17.0004 12.0003 17.0004C13.0193 17.0004 13.9672 16.6955 14.7577 16.172ZM7.97446 3.7604C9.22127 3.26984 10.5793 3.00041 12.0003 3.00041C17.3924 3.00041 21.8784 6.88017 22.8189 12.0004C22.5067 13.7 21.8038 15.263 20.8068 16.5927L16.947 12.7329C16.9821 12.4938 17.0003 12.2492 17.0003 12.0004C17.0003 9.23898 14.7617 7.00041 12.0003 7.00041C11.7514 7.00041 11.5068 7.01858 11.2677 7.05368L7.97446 3.7604Z" fill="#1A1A1A"/>
</svg>
