<svg width="50" height="24" viewBox="0 0 50 24" fill="none" xmlns="http://www.w3.org/2000/svg">
    <g clip-path="url(#clip0_12362_5925)">
        <path d="M45.1935 2.55302V0.481828H44.4785V0H46.4705V0.481828H45.7478V2.55302H45.1935ZM46.8497 2.55302V0H47.4699L48.1335 1.51687L48.7904 0H49.4106V2.55302H48.8562V1.07965L48.3387 2.23849H47.916L47.4052 1.07965V2.55302H46.8508H46.8497Z" fill="#71C598"/>
        <path d="M26.698 5.79991C26.0109 5.3337 25.1878 5.10059 24.2286 5.10059C23.5482 5.10059 22.9192 5.23778 22.3392 5.50992C21.7592 5.78318 21.2763 6.18582 20.8892 6.71895V5.33927H18.3496V19.6502H20.9093V13.894C21.1759 14.2676 21.5863 14.6267 22.1395 14.9736C22.6928 15.3205 23.3898 15.4934 24.2297 15.4934C25.1766 15.4934 25.9931 15.2569 26.6801 14.784C27.366 14.3111 27.8969 13.6742 28.2695 12.8756C28.6431 12.0759 28.8294 11.2037 28.8294 10.2568C28.8294 9.30989 28.6453 8.44773 28.2795 7.66811C27.9126 6.88849 27.3861 6.26612 26.6991 5.7988L26.698 5.79991ZM25.8871 11.7558C25.6607 12.2087 25.3473 12.5723 24.9469 12.8455C24.5465 13.1188 24.0802 13.2549 23.5471 13.2549C23.014 13.2549 22.5667 13.1255 22.1674 12.8656C21.767 12.6057 21.4536 12.2488 21.2272 11.796C21.0008 11.3432 20.887 10.8435 20.887 10.297C20.887 9.75045 21.0041 9.21398 21.2372 8.76784C21.4703 8.3217 21.7871 7.97148 22.1875 7.7183C22.5879 7.46512 23.0407 7.33908 23.5471 7.33908C24.0267 7.33908 24.4706 7.45285 24.8766 7.67926C25.2837 7.90568 25.6094 8.23582 25.857 8.66857C26.1035 9.10133 26.2273 9.63111 26.2273 10.2579C26.2273 10.8045 26.1135 11.3041 25.8871 11.757V11.7558ZM38.9466 12.3559V9.33778C38.9466 8.47227 38.7727 7.72276 38.4269 7.08925C38.08 6.45685 37.5837 5.96721 36.9368 5.62034C36.2899 5.27458 35.5002 5.10059 34.5667 5.10059C33.8071 5.10059 33.0933 5.24001 32.4264 5.51996C31.7594 5.79991 31.2129 6.1992 30.7868 6.71895C30.3596 7.2387 30.1131 7.85772 30.0473 8.57823H32.607C32.6873 8.09863 32.9104 7.75511 33.2774 7.54877C33.6443 7.34243 34.0603 7.2387 34.5277 7.2387C34.9281 7.2387 35.2638 7.32235 35.5382 7.48854C35.8114 7.65473 36.0178 7.89118 36.1583 8.1979C36.2977 8.50462 36.368 8.88495 36.368 9.33666H34.0079C33.2205 9.33666 32.5111 9.45043 31.8776 9.67684C31.2441 9.90326 30.7478 10.2501 30.3875 10.7163C30.0273 11.1826 29.8477 11.7826 29.8477 12.5154C29.8477 13.1288 30.0038 13.6586 30.3172 14.1048C30.6307 14.5509 31.04 14.8944 31.5475 15.1342C32.0538 15.374 32.6003 15.4945 33.187 15.4945C33.9466 15.4945 34.6503 15.3182 35.2972 14.9647C35.9441 14.6122 36.4204 14.175 36.7271 13.6553C36.9134 14.0155 37.1398 14.3122 37.4075 14.5442C37.674 14.7773 38.0176 14.9535 38.4369 15.074C38.8574 15.1933 39.3805 15.2536 40.0062 15.2536V13.1143C39.6995 13.1143 39.453 13.0608 39.2667 12.9548C39.0794 12.8489 38.9734 12.6481 38.9466 12.3548V12.3559ZM36.3669 11.0565C36.3669 11.5227 36.2531 11.9354 36.0267 12.2957C35.8003 12.6559 35.5036 12.9348 35.1366 13.1355C34.7697 13.3352 34.3671 13.4355 33.9265 13.4355C33.5127 13.4355 33.1636 13.3396 32.877 13.1456C32.5903 12.9526 32.4475 12.6492 32.4475 12.2366C32.4475 11.9298 32.5278 11.6867 32.6873 11.5071C32.8468 11.3275 33.0599 11.1937 33.3275 11.1078C33.5941 11.0208 33.8741 10.9784 34.1674 10.9784H36.3669V11.0588V11.0565ZM41.0669 1.2627V15.2536H43.6266V1.2627H41.0669Z" fill="url(#paint0_linear_12362_5925)"/>
        <path d="M4.9741 3.27405C7.7 0.898372 11.8156 1.19394 14.169 3.93434C15.204 5.13891 15.7249 6.61785 15.7528 8.09679C15.5799 7.82019 15.3836 7.55251 15.1639 7.29709C12.8116 4.55781 8.69488 4.26225 5.96898 6.63793C4.4432 7.96741 3.31224 9.9873 3.34681 11.8711C1.6593 9.1731 2.50361 5.42889 4.9741 3.27517V3.27405Z" fill="url(#paint1_linear_12362_5925)" stroke="url(#paint2_radial_12362_5925)" stroke-width="1.48" stroke-miterlimit="10"/>
        <g opacity="0.33">
            <path d="M10.0526 1.81676C13.6796 2.25174 16.2338 5.56542 15.7586 9.21929C15.549 10.8254 14.7883 12.2318 13.693 13.2635C13.7845 12.9434 13.8536 12.6122 13.8983 12.2709C14.3745 8.61812 11.8204 5.30443 8.19216 4.86945C6.16223 4.6263 4.22488 5.33678 2.82959 6.65177C3.72298 3.53104 6.76452 1.42304 10.0526 1.81676Z" fill="url(#paint3_linear_12362_5925)" stroke="url(#paint4_radial_12362_5925)" stroke-width="1.48" stroke-miterlimit="10"/>
        </g>
        <g opacity="0.55">
            <path d="M14.5751 4.65895C16.6942 7.69826 15.9224 11.8964 12.8496 14.0368C11.499 14.977 9.92633 15.364 8.41057 15.2424C8.71395 15.093 9.00951 14.9179 9.29616 14.7182C12.3678 12.579 13.1396 8.38085 11.0205 5.34154C9.83375 3.64064 7.99232 2.66249 6.06055 2.50745C9.01286 1.04747 12.6533 1.90405 14.574 4.66007L14.5751 4.65895Z" fill="url(#paint5_linear_12362_5925)" stroke="url(#paint6_radial_12362_5925)" stroke-width="1.48" stroke-miterlimit="10"/>
        </g>
        <path opacity="0.41" d="M15.4853 10.0223C14.6265 13.7041 10.9436 15.9916 7.25963 15.1328C5.64016 14.7558 4.67873 13.8892 3.74854 12.659C4.06529 12.7861 4.00618 12.8319 4.34971 12.9122C8.03257 13.771 11.7143 11.4823 12.5742 7.80055C13.055 5.7394 12.5497 3.67825 11.363 2.1123C14.4547 3.34587 16.2638 6.68298 15.4853 10.0212V10.0223Z" fill="url(#paint7_linear_12362_5925)" stroke="url(#paint8_radial_12362_5925)" stroke-width="1.45" stroke-miterlimit="10"/>
        <path opacity="0.41" d="M8.87165 15.3647C5.24009 15.2365 2.40489 12.0622 2.53873 8.2745C2.59784 6.60929 3.23805 5.49618 4.22736 4.3418C4.16602 4.67863 4.11136 4.62956 4.09909 4.982C3.96525 8.76859 6.80157 11.9429 10.4331 12.0711C12.4653 12.1425 14.3179 11.2435 15.5771 9.77352C14.9815 13.0526 12.1641 15.4807 8.87276 15.3658L8.87165 15.3647Z" fill="url(#paint9_linear_12362_5925)" stroke="url(#paint10_radial_12362_5925)" stroke-width="1.45" stroke-miterlimit="10"/>
        <path d="M10.0885 1.80385C10.9384 1.80273 11.7872 1.96669 12.5769 2.28456C13.3665 2.60244 14.096 3.07311 14.7139 3.66647C15.3306 4.25983 15.8415 4.97142 16.1917 5.76332C16.5452 6.55186 16.7449 7.41514 16.7717 8.28957C16.7973 9.16288 16.6534 10.0485 16.3356 10.876C16.0166 11.7014 15.5336 12.4688 14.9146 13.1123C14.2956 13.7559 13.5439 14.2767 12.7163 14.6281C12.3025 14.8032 11.8708 14.9392 11.4303 15.0285C10.9886 15.1177 10.5391 15.1623 10.0896 15.1634C9.19067 15.1623 8.28948 14.9827 7.46189 14.6292C6.63431 14.2778 5.88145 13.757 5.26244 13.1134C4.64231 12.4699 4.16048 11.7014 3.84038 10.876C3.5225 10.0496 3.37862 9.16288 3.40428 8.28957C3.43104 7.41514 3.63069 6.55186 3.98425 5.7622C4.33447 4.97142 4.84418 4.25872 5.46208 3.66536C6.07998 3.07311 6.80942 2.60132 7.59908 2.28456C8.38874 1.96669 9.23864 1.80273 10.0874 1.80497L10.0885 1.80385ZM10.0885 1.80385C9.66358 1.80608 9.23975 1.84846 8.82373 1.93211C8.4077 2.01576 8.0006 2.14514 7.61135 2.31022C6.83173 2.64259 6.12237 3.13334 5.53904 3.74232C4.95572 4.35018 4.50177 5.07515 4.20286 5.85254C3.90507 6.63217 3.77122 7.46533 3.79688 8.28957C3.82253 9.11381 4.01325 9.92466 4.34674 10.6664C4.67688 11.4103 5.15871 12.0795 5.7398 12.6361C6.32201 13.1926 7.00795 13.6354 7.75077 13.9332C8.49247 14.231 9.28994 14.3849 10.0896 14.3838C10.8893 14.3849 11.6868 14.2321 12.4285 13.9332C13.1713 13.6354 13.8573 13.1937 14.4395 12.6361C15.6117 11.5274 16.3356 9.93916 16.3835 8.28734C16.4092 7.4631 16.2753 6.62882 15.9764 5.85031C15.6775 5.07292 15.2236 4.34683 14.6391 3.74008C14.0558 3.13222 13.3464 2.64036 12.5668 2.3091C12.1764 2.14403 11.7705 2.01465 11.3544 1.931C10.9384 1.84735 10.5135 1.80497 10.0896 1.80273L10.0885 1.80385Z" fill="url(#paint11_radial_12362_5925)"/>
        <g opacity="0.57">
            <path d="M16.1959 8.29221C16.2014 9.99088 15.5289 11.6862 14.3332 12.9164C13.7388 13.5321 13.0261 14.0418 12.2353 14.392C11.4456 14.7456 10.5823 14.9452 9.70791 14.9709C8.8346 14.9965 7.9479 14.8527 7.12143 14.5348C6.29608 14.2158 5.5276 13.734 4.88405 13.115C4.24273 12.4937 3.71963 11.7453 3.36607 10.9188C3.01251 10.0924 2.83182 9.19118 2.82959 8.29221C2.83071 7.39325 3.01139 6.49205 3.36495 5.66558C3.71629 4.83799 4.24161 4.0896 4.88294 3.46835C5.52537 2.84711 6.29496 2.36639 7.12031 2.04741C7.94678 1.72953 8.83348 1.58565 9.70791 1.61131C11.4612 1.65815 13.1532 2.42551 14.3344 3.66688C15.53 4.89822 16.2026 6.59243 16.197 8.29221H16.1959ZM16.1959 8.29221C16.1936 7.44344 16.0241 6.59466 15.6895 5.81503C15.356 5.03541 14.8608 4.33051 14.2563 3.74496C13.6495 3.16052 12.9234 2.70769 12.1449 2.40878C11.3653 2.11098 10.531 1.97714 9.70679 2.00279C8.05497 2.05075 6.46784 2.77461 5.35696 3.94349C4.23381 5.10345 3.60364 6.69393 3.6081 8.29221C3.60364 9.8905 4.23158 11.481 5.35584 12.642C6.46672 13.812 8.05497 14.5359 9.70679 14.5839C10.531 14.6095 11.3653 14.4757 12.1449 14.1779C12.9223 13.879 13.6495 13.4261 14.2563 12.8417C14.8608 12.2561 15.3571 11.5512 15.6895 10.7716C16.0241 9.99199 16.1936 9.14322 16.1959 8.29444V8.29221Z" fill="url(#paint12_radial_12362_5925)"/>
        </g>
        <path d="M15.8223 11.312C15.8078 11.3466 15.7944 11.38 15.7799 11.4146C15.375 12.3392 14.7772 13.1735 14.0422 13.8494C13.3083 14.5264 12.4394 15.0428 11.5148 15.364C10.5891 15.6864 9.61091 15.8091 8.65618 15.7488C7.70033 15.6875 6.77348 15.4365 5.93697 15.0261C5.09935 14.6179 4.35318 14.0535 3.73751 13.381C3.12296 12.7073 2.6389 11.9266 2.31545 11.0889C1.98866 10.2524 1.82916 9.36016 1.82693 8.46454C1.82916 7.56892 1.992 6.67664 2.31768 5.84125C2.48387 5.42523 2.68017 5.01813 2.91997 4.63556C3.16088 4.25412 3.43191 3.88828 3.74086 3.55257C4.35653 2.88113 5.10269 2.31677 5.9392 1.90855C6.77459 1.49922 7.70144 1.24715 8.65618 1.18581C9.61091 1.12558 10.588 1.24827 11.5137 1.56949C12.4383 1.8907 13.3072 2.40599 14.0411 3.08301C14.7761 3.75779 15.3739 4.59207 15.7788 5.51668C15.9583 5.93048 16.1033 6.35988 16.2059 6.79933C16.2115 6.79152 16.216 6.78371 16.2215 6.77591C16.1301 6.33869 16.0029 5.90817 15.839 5.49103C15.4687 4.54299 14.9177 3.66187 14.2184 2.90455C13.5191 2.14835 12.6714 1.51595 11.7234 1.06201C10.7764 0.60583 9.72802 0.33034 8.65506 0.268996C7.58322 0.208768 6.48237 0.354878 5.44622 0.722941C4.41007 1.08989 3.43972 1.67433 2.62217 2.43611C2.21396 2.81755 1.8392 3.23804 1.51687 3.69756C1.19342 4.15708 0.909005 4.64672 0.687051 5.16647C0.463983 5.6851 0.286643 6.22493 0.172878 6.78037C0.0568825 7.33469 0.00111534 7.90129 0 8.46565C0.00111534 9.03113 0.0591132 9.59661 0.173993 10.1509C0.289989 10.7053 0.465098 11.2462 0.688167 11.7637C1.13988 12.7988 1.80574 13.7334 2.6244 14.4918C3.44195 15.2514 4.41118 15.8358 5.44733 16.2028C6.48349 16.5697 7.58322 16.717 8.65395 16.6567C9.72579 16.5954 10.7742 16.321 11.7211 15.866C12.6692 15.4131 13.5168 14.7807 14.2162 14.0245C14.9144 13.2672 15.4665 12.3872 15.8368 11.4392C15.8479 11.4102 15.8579 11.3812 15.868 11.3533C15.8513 11.341 15.8345 11.3276 15.82 11.3131L15.8223 11.312Z" fill="url(#paint13_linear_12362_5925)"/>
        <path d="M1.77438 22.5185C2.01307 22.4282 2.19152 22.204 2.19152 21.9274C2.19152 21.4612 1.80784 21.1846 1.22786 21.1846H0.0166016V23.9528H1.31821C1.94057 23.9528 2.3354 23.664 2.3354 23.1676C2.3354 22.8498 2.09225 22.5654 1.77438 22.5196V22.5185ZM0.882108 21.8025H1.02264C1.26579 21.8025 1.40186 21.8627 1.40186 22.049C1.40186 22.2352 1.27248 22.3189 1.02264 22.3189H0.882108V21.8025ZM1.16317 23.3349H0.882108V22.8185H1.16317C1.3907 22.8185 1.51562 22.8977 1.51562 23.065C1.51562 23.2323 1.42082 23.3338 1.16317 23.3338V23.3349ZM4.65531 21.1768L4.23483 22.1482L3.82215 21.1768H2.85069L3.75969 22.9602V23.9528H4.6765V22.9602L5.58551 21.1768H4.65531Z" fill="#0B99A8"/>
        <path d="M8.63803 23.953H7.33643V21.1836H8.54657C9.12767 21.1836 9.51023 21.4602 9.51023 21.9264C9.51023 22.203 9.33177 22.4272 9.09309 22.5175C9.41208 22.5633 9.65411 22.8477 9.65411 23.1667C9.65411 23.6641 9.25928 23.9519 8.63692 23.9519M8.34247 21.8026H8.20193V22.319H8.34247C8.5923 22.319 8.72168 22.232 8.72168 22.0491C8.72168 21.8662 8.58561 21.8026 8.34247 21.8026ZM8.48188 22.8187H8.20082V23.3351H8.48188C8.73953 23.3351 8.83433 23.2358 8.83433 23.0663C8.83433 22.8968 8.70941 22.8198 8.48188 22.8198" fill="#0B99A8"/>
        <path d="M12.2241 23.953L12.0757 23.4489H11.2638L11.1154 23.953H10.231L11.1913 21.1836H12.1928L13.1532 23.953H12.223H12.2241ZM11.6697 22.0792L11.4612 22.7819H11.8783L11.6697 22.0792Z" fill="#0B99A8"/>
        <path d="M15.1329 23.9986C14.3656 23.9986 13.79 23.6049 13.79 22.6791V21.1846H14.7158V22.775C14.7158 23.074 14.8753 23.2636 15.1329 23.2636C15.3906 23.2636 15.5501 23.074 15.5501 22.775V21.1846H16.4758V22.6791C16.4758 23.6049 15.898 23.9986 15.1318 23.9986" fill="#0B99A8"/>
        <path d="M18.3751 23.9984C17.9234 23.9984 17.533 23.8356 17.2754 23.6114L17.6435 23.0236C17.9011 23.2288 18.1253 23.3236 18.364 23.3236C18.4967 23.3236 18.5915 23.2656 18.5915 23.1708C18.5915 23.0381 18.4855 22.989 18.1476 22.8864C17.6423 22.7314 17.388 22.515 17.388 22.0599C17.388 21.461 17.8587 21.1387 18.5302 21.1387C18.8904 21.1387 19.244 21.2714 19.4291 21.4197L19.0644 22.0231C18.8748 21.8871 18.6997 21.8146 18.4956 21.8146C18.3205 21.8146 18.2558 21.8904 18.2558 21.9696C18.2558 22.0566 18.3205 22.1101 18.6852 22.2161C19.186 22.36 19.4592 22.5529 19.4592 23.0727C19.4592 23.627 19.0421 23.9984 18.374 23.9984" fill="#0B99A8"/>
        <path d="M21.6774 23.9984C20.8353 23.9984 20.2319 23.4073 20.2319 22.5808C20.2319 21.7543 20.8588 21.1387 21.693 21.1387C22.1369 21.1387 22.4336 21.3283 22.6723 21.5335L22.2172 22.1514C22.0622 21.9997 21.9139 21.8938 21.6741 21.8938C21.3662 21.8938 21.1387 22.1592 21.1387 22.5574C21.1387 22.9556 21.3595 23.2433 21.7276 23.2433C21.9328 23.2433 22.1224 23.153 22.2853 23.0013L22.7292 23.6047C22.4637 23.8356 22.1637 23.9984 21.6774 23.9984Z" fill="#0B99A8"/>
        <path d="M25.2323 23.953V22.986H24.5341V23.953H23.6084V21.1836H24.5341V22.2041H25.2323V21.1836H26.1592V23.953H25.2323Z" fill="#0B99A8"/>
        <path d="M31.3755 23.953V21.1836H32.2644V23.247H33.1712V23.953H31.3755Z" fill="#0B99A8"/>
        <path d="M35.1685 23.9983C34.2997 23.9983 33.6807 23.3993 33.6807 22.5729C33.6807 21.7464 34.3064 21.1396 35.1763 21.1396C36.0463 21.1396 36.6642 21.7386 36.6642 22.5651C36.6642 23.3915 36.0374 23.9994 35.1685 23.9994M35.1685 21.8735C34.8306 21.8735 34.5874 22.1658 34.5874 22.5639C34.5874 22.9621 34.8384 23.2621 35.1763 23.2621C35.5143 23.2621 35.7563 22.9699 35.7563 22.5718C35.7563 22.1736 35.5054 21.8735 35.1685 21.8735Z" fill="#0B99A8"/>
        <path d="M39.5061 23.953V22.6023L39.0766 23.4065H38.655L38.2145 22.6023V23.953H37.3423V21.1836H38.2413L38.8714 22.2889L39.4559 21.1836H40.4307V23.953H39.5061Z" fill="#0B99A8"/>
        <path d="M42.6092 23.953H41.3076V21.1836H42.5189C43.1 21.1836 43.4836 21.4602 43.4836 21.9264C43.4836 22.203 43.3052 22.4272 43.0665 22.5175C43.3844 22.5633 43.6275 22.8477 43.6275 23.1667C43.6275 23.6641 43.2327 23.9519 42.6103 23.9519M42.3137 21.8026H42.1731V22.319H42.3137C42.5646 22.319 42.694 22.232 42.694 22.0491C42.694 21.8662 42.5568 21.8026 42.3137 21.8026ZM42.4542 22.8187H42.1731V23.3351H42.4542C42.7118 23.3351 42.8066 23.2358 42.8066 23.0663C42.8066 22.8968 42.6817 22.8198 42.4542 22.8198" fill="#0B99A8"/>
        <path d="M28.3191 22.1191H27.3789V23.0181H28.3191V22.1191Z" fill="#57C1E9"/>
        <path d="M30.1496 22.1191H29.2139V23.0181H30.1496V22.1191Z" fill="#57C1E9"/>
        <path d="M29.215 21.1836H28.3193V22.1194H29.215V21.1836Z" fill="#71C598"/>
        <path d="M29.215 23.0176H28.3193V23.9534H29.215V23.0176Z" fill="#71C598"/>
        <path d="M29.215 22.1191H28.3193V23.0181H29.215V22.1191Z" fill="#0B99A8"/>
    </g>
    <defs>
        <linearGradient id="paint0_linear_12362_5925" x1="18.3485" y1="10.4565" x2="43.6266" y2="10.4565" gradientUnits="userSpaceOnUse">
            <stop offset="0.25" stop-color="#0B99A8"/>
            <stop offset="0.94" stop-color="#71C598"/>
        </linearGradient>
        <linearGradient id="paint1_linear_12362_5925" x1="2.94108" y1="5.90004" x2="15.5778" y2="8.84766" gradientUnits="userSpaceOnUse">
            <stop stop-color="#0B99A8" stop-opacity="0"/>
            <stop offset="1" stop-color="#0B99A8"/>
        </linearGradient>
        <radialGradient id="paint2_radial_12362_5925" cx="0" cy="0" r="1" gradientUnits="userSpaceOnUse" gradientTransform="translate(9.11202 6.88107) scale(6.05297)">
            <stop stop-color="white"/>
            <stop offset="1" stop-color="white" stop-opacity="0"/>
        </radialGradient>
        <linearGradient id="paint3_linear_12362_5925" x1="3.10456" y1="5.47475" x2="15.9672" y2="8.47507" gradientUnits="userSpaceOnUse">
            <stop stop-color="#57C1E9"/>
            <stop offset="1" stop-color="#0B99A8" stop-opacity="0.4"/>
        </linearGradient>
        <radialGradient id="paint4_radial_12362_5925" cx="0" cy="0" r="1" gradientUnits="userSpaceOnUse" gradientTransform="translate(9.28296 7.61319) scale(6.27938)">
            <stop stop-color="white"/>
            <stop offset="1" stop-color="white" stop-opacity="0"/>
        </radialGradient>
        <linearGradient id="paint5_linear_12362_5925" x1="4.88952" y1="7.53379" x2="15.5874" y2="10.0292" gradientUnits="userSpaceOnUse">
            <stop stop-color="#57C1E9" stop-opacity="0"/>
            <stop offset="0.24" stop-color="#57C1E9" stop-opacity="0.0841"/>
            <stop offset="0.51" stop-color="#57C1E9" stop-opacity="0.3481"/>
            <stop offset="0.74" stop-color="#57C1E9" stop-opacity="0.6561"/>
            <stop offset="0.91" stop-color="#57C1E9" stop-opacity="0.9025"/>
            <stop offset="1" stop-color="#57C1E9"/>
        </linearGradient>
        <radialGradient id="paint6_radial_12362_5925" cx="0" cy="0" r="1" gradientUnits="userSpaceOnUse" gradientTransform="translate(10.8052 8.53811) scale(5.99831)">
            <stop stop-color="white"/>
            <stop offset="1" stop-color="white" stop-opacity="0"/>
        </radialGradient>
        <linearGradient id="paint7_linear_12362_5925" x1="4.92883" y1="7.60103" x2="15.4768" y2="10.0614" gradientUnits="userSpaceOnUse">
            <stop stop-color="#0B99A8"/>
            <stop offset="1" stop-color="#71C598"/>
        </linearGradient>
        <radialGradient id="paint8_radial_12362_5925" cx="0" cy="0" r="1" gradientUnits="userSpaceOnUse" gradientTransform="translate(10.1129 8.79015) rotate(13.12) scale(6.28719)">
            <stop stop-color="white"/>
            <stop offset="1" stop-color="white" stop-opacity="0"/>
        </radialGradient>
        <linearGradient id="paint9_linear_12362_5925" x1="9.19877" y1="4.74785" x2="8.81723" y2="15.5655" gradientUnits="userSpaceOnUse">
            <stop stop-color="#0B99A8"/>
            <stop offset="1" stop-color="#71C598"/>
        </linearGradient>
        <radialGradient id="paint10_radial_12362_5925" cx="0" cy="0" r="1" gradientUnits="userSpaceOnUse" gradientTransform="translate(8.94864 10.0106) rotate(92.02) scale(6.28719 1.38318)">
            <stop stop-color="white"/>
            <stop offset="1" stop-color="white" stop-opacity="0"/>
        </radialGradient>
        <radialGradient id="paint11_radial_12362_5925" cx="0" cy="0" r="1" gradientUnits="userSpaceOnUse" gradientTransform="translate(10.0874 8.2904) scale(6.87943 15.2036)">
            <stop stop-color="white" stop-opacity="0"/>
            <stop offset="0.5" stop-color="white"/>
            <stop offset="1" stop-color="white" stop-opacity="0"/>
        </radialGradient>
        <radialGradient id="paint12_radial_12362_5925" cx="0" cy="0" r="1" gradientUnits="userSpaceOnUse" gradientTransform="translate(9.70679 8.29422) scale(6.8772 15.1986)">
            <stop stop-color="white" stop-opacity="0"/>
            <stop offset="0.5" stop-color="white"/>
            <stop offset="1" stop-color="white" stop-opacity="0"/>
        </radialGradient>
        <linearGradient id="paint13_linear_12362_5925" x1="2.91885" y1="2.0212" x2="13.9295" y2="15.4789" gradientUnits="userSpaceOnUse">
            <stop stop-color="#71C598"/>
            <stop offset="0.19" stop-color="#57BA9B"/>
            <stop offset="0.55" stop-color="#2EA8A2"/>
            <stop offset="0.83" stop-color="#149DA6"/>
            <stop offset="1" stop-color="#0B99A8"/>
        </linearGradient>
        <clipPath id="clip0_12362_5925">
            <rect width="49.4108" height="24" fill="white"/>
        </clipPath>
    </defs>
</svg>